<?xml version="1.0" encoding="utf-8"?>
<!-- Generator: Adobe Illustrator 25.2.0, SVG Export Plug-In . SVG Version: 6.00 Build 0)  -->
<svg version="1.1" id="Layer_1" xmlns="http://www.w3.org/2000/svg" xmlns:xlink="http://www.w3.org/1999/xlink" x="0px" y="0px"
	 viewBox="0 0 853 326.5" style="enable-background:new 0 0 853 326.5;" xml:space="preserve">
<style type="text/css">
	.st0{fill:#010101;}
</style>
<g>
	<path class="st0" d="M195.65,59.48c-9.14-3.65-19.01-5.48-28.88-5.48c-5.85,0-11.7,0.73-17.55,1.83l-23.58,40.56
		c9.69-5.3,20.47-7.86,31.62-7.67c6.76,0,13.34,0.91,19.74,2.74L195.65,59.48z M54,168.55c0,58.46,49.71,103.95,107.65,103.95
		c60.68,0,109.67-48.96,109.67-108.52c0-34.89-16.82-65.59-41.86-86.05l-18.28,31.61c16.08,13.7,25.41,33.8,25.41,54.99
		c0,40.56-33.63,73.81-74.94,73.81c-41.31,0-74.76-33.43-74.76-74.72v-0.18c0-4.93,0.36-9.87,1.28-14.62L54,168.55z M392.32,120.5
		c-8.96-0.18-17.55,2.92-24.31,8.59l-1.83-6.58h-16.45V206h21.02v-45.31c0-9.68,6.4-19.37,18.83-19.37
		c9.69,0,15.35,6.76,15.35,18.27v46.59h21.02v-48.41C425.95,135.12,412.79,120.5,392.32,120.5 M636.33,120.5
		c-23.58,0-42.04,19.18-42.04,43.67c0,24.48,18.46,43.66,42.04,43.66c23.58,0,42.04-19.18,42.04-43.66
		C678.37,139.68,659.91,120.5,636.33,120.5 M657.16,164.17c0,13.34-8.77,23.02-20.65,23.02c-11.88,0-20.84-9.68-20.84-23.02
		c0-13.34,8.77-23.02,20.65-23.02C648.21,141.15,657.16,150.83,657.16,164.17 M512.04,120.5c-23.58,0-42.04,19.18-42.04,43.67
		c0,24.48,18.46,43.66,42.04,43.66c23.58,0,42.04-19.18,42.04-43.66C554.08,139.68,535.62,120.5,512.04,120.5 M532.69,164.17
		c0,13.34-8.77,23.02-20.65,23.02c-11.88,0-20.65-9.68-20.65-23.02c0-13.34,8.77-23.02,20.65-23.02
		C523.92,141.15,532.69,150.83,532.69,164.17 M765.37,120.5c-8.96-0.18-17.55,2.92-24.31,8.59l-1.83-6.58h-16.45V206h20.84v-45.31
		c0-9.68,6.4-19.37,18.83-19.37c9.69,0,15.54,6.76,15.54,18.27v46.59H799v-48.41C798.82,135.12,785.66,120.5,765.37,120.5"/>
</g>
</svg>
