<svg width="208" height="175" viewBox="0 0 208 175" fill="none" xmlns="http://www.w3.org/2000/svg">
<path d="M207.43 124.06L197.32 39.8C194.6 17.11 175.32 0 152.47 0H55.9401C33.0901 0 13.8101 17.11 11.0901 39.8L0.990079 124.06C-0.549921 136.88 3.48008 149.77 12.0501 159.42C20.6101 169.08 32.9301 174.61 45.8401 174.61H162.58C175.48 174.61 187.8 169.08 196.37 159.42C204.93 149.77 208.97 136.88 207.43 124.06ZM179.74 144.77C175.15 149.94 168.82 152.78 161.92 152.78H46.4901C39.5801 152.78 33.2501 149.94 28.6701 144.77C24.0801 139.6 22.0201 132.98 22.8401 126.12L32.8201 42.81C34.2501 30.85 44.4201 21.83 56.4701 21.83H151.93C163.98 21.83 174.15 30.86 175.58 42.81L185.57 126.12C186.39 132.98 184.31 139.6 179.74 144.77Z" fill="#004956"/>
<path d="M162.2 98.19C160.61 95.75 158.17 94.08 155.32 93.48C152.47 92.88 149.56 93.43 147.13 95.01C118.06 113.96 89.78 113.96 60.66 95.01C58.22 93.42 55.31 92.88 52.47 93.48C49.62 94.08 47.1801 95.75 45.6001 98.19C44.0101 100.63 43.4701 103.54 44.0701 106.38C44.6701 109.23 46.34 111.67 48.78 113.25C66.98 125.1 85.5301 131.1 103.92 131.1C122.31 131.1 140.85 125.09 159.02 113.24C161.46 111.65 163.13 109.21 163.73 106.36C164.33 103.51 163.78 100.61 162.2 98.17V98.19Z" fill="#004956"/>
</svg>
