<svg width="176" height="134" viewBox="0 0 176 134" fill="none" xmlns="http://www.w3.org/2000/svg">
<path d="M172.19 32.61L161.86 36.17C162.99 39.81 164.38 45.02 164.38 48.06C164.38 51.36 162.3 53.35 158.31 53.35C154.32 53.35 151.8 52.4 151.8 47.02V37.74H140.87V47.02C140.87 52.4 138.44 53.35 134.1 53.35C129.76 53.35 127.42 52.4 127.42 47.02V37.74H116.4V46.94C116.4 52.41 113.45 53.36 107.12 53.36C100.79 53.36 98.3601 52.06 98.3601 44.94V5.10999H86.8201V45.54C86.8201 52.13 84.5601 53.35 78.0601 53.35C72.9401 53.35 69.9101 52.31 69.9101 45.8V15.95H59.0601V22.12C38.4901 26.36 31.1201 34.96 31.1201 45.72C31.1201 56.48 37.8901 62.55 47.7801 62.55C55.1601 62.55 58.8801 58.82 60.5401 53.78C62.0201 62.72 67.2101 67.92 77.3601 67.92H77.3801C85.1001 67.92 89.4401 64.45 91.2601 59.16C93.5201 65.06 98.6401 67.92 106.44 67.92C113.64 67.92 118.33 65.32 120.15 59.94C121.97 65.41 126.31 67.92 132.47 67.92C138.63 67.92 142.88 65.32 144.62 59.85C146.44 65.32 150.87 67.92 157.98 67.92C168.74 67.92 175.33 60.89 175.33 48.14C175.33 43.45 174.03 37.03 172.21 32.61H172.19ZM59.0401 45.45C57.3101 46.84 54.0101 47.88 49.1501 47.88C44.7201 47.88 40.3001 46.67 40.3001 43.72C40.3001 40.5 44.9001 37.3 59.0401 34.95V45.45Z" fill="#004956"/>
<path d="M64.4102 13.72C68.2002 13.72 71.3102 10.97 71.3102 7.11C71.3102 3.03 68.0402 0.5 64.4102 0.5C60.7802 0.5 57.4302 3.1 57.4302 7.11C57.4302 11.12 60.8402 13.72 64.4102 13.72Z" fill="#004956"/>
<path d="M48.8201 13.72C52.6101 13.72 55.7201 10.97 55.7201 7.11C55.7201 3.03 52.4501 0.5 48.8201 0.5C45.1901 0.5 41.8401 3.1 41.8401 7.11C41.8401 11.12 45.2501 13.72 48.8201 13.72Z" fill="#004956"/>
<path d="M0.01 130.05L1.72 120.77C5.06 123.14 11 125.3 15.97 125.3C20.27 125.3 22.8 123.89 22.8 121.51C22.8 115.05 0.39 121.06 0.39 105.4C0.39 97.24 7.14 91.89 18.05 91.89C23.91 91.89 29.33 93.52 33.19 95.53L31.33 104.58C27.69 102.65 23.09 100.87 18.64 100.87C14.56 100.87 12.03 102.43 12.03 104.66C12.03 111.41 34.44 105.62 34.44 120.25C34.44 128.27 26.8 133.91 15.51 133.91C8.76 133.91 3.34 131.91 0 130.05H0.01Z" fill="#004956"/>
<path d="M71.9999 93.2399H83.7299V132.8H71.9999V126.27C68.8099 131.02 64.2799 133.77 58.4199 133.77C48.4699 133.77 38.8999 126.72 38.8999 112.99C38.8999 99.2599 48.0299 92.0599 58.4199 92.0599C64.2099 92.0599 68.7399 94.2099 71.9999 98.5199V93.2499V93.2399ZM71.9999 112.83C69.8499 105.48 65.5399 101.77 60.6399 101.77C55.3699 101.77 51.2899 105.7 51.2899 112.83C51.2899 119.96 55.4499 124.04 60.7199 124.04C65.9899 124.04 70.0699 119.51 71.9999 112.83Z" fill="#004956"/>
<path d="M92.3301 132.8V80.62H104.06V132.8H92.3301Z" fill="#004956"/>
<path d="M112.67 132.8V80.62H124.4V132.8H112.67Z" fill="#004956"/>
<path d="M164.18 93.2399H175.91V132.8H164.18V126.27C160.99 131.02 156.46 133.77 150.6 133.77C140.65 133.77 131.08 126.72 131.08 112.99C131.08 99.2599 140.21 92.0599 150.6 92.0599C156.39 92.0599 160.92 94.2099 164.18 98.5199V93.2499V93.2399ZM164.18 112.83C162.03 105.48 157.72 101.77 152.82 101.77C147.55 101.77 143.47 105.7 143.47 112.83C143.47 119.96 147.63 124.04 152.9 124.04C158.17 124.04 162.25 119.51 164.18 112.83Z" fill="#004956"/>
</svg>
